<?xml version="1.0" encoding="UTF-8"?>
<svg version="1.1" xmlns="http://www.w3.org/2000/svg" width="512" height="512">
<path d="M0 0 C168.96 0 337.92 0 512 0 C512 168.96 512 337.92 512 512 C343.04 512 174.08 512 0 512 C0 343.04 0 174.08 0 0 Z " fill="#FEFEFE" transform="translate(0,0)"/>
<path d="M0 0 C2.13604308 3.20406462 2.24208908 3.99600747 2.1953125 7.66796875 C2.18886719 8.56064453 2.18242187 9.45332031 2.17578125 10.37304688 C2.15902344 11.30181641 2.14226562 12.23058594 2.125 13.1875 C2.11597656 14.12787109 2.10695313 15.06824219 2.09765625 16.03710938 C2.07409056 18.35832968 2.04119116 20.67903644 2 23 C1.34 23 0.68 23 0 23 C-0.11601562 23.87398437 -0.23203125 24.74796875 -0.3515625 25.6484375 C-3.15010663 40.11320173 -14.50640059 51.16213983 -26.18591309 59.24905396 C-31.13784738 62.53638734 -36.2536695 65.4503403 -41.46484375 68.3046875 C-42.28980347 68.759646 -43.11476318 69.21460449 -43.96472168 69.68334961 C-45.97504738 70.79154074 -47.98680603 71.89703086 -50 73 C-50.09366176 82.41603314 -50.16424337 91.83190016 -50.20724869 101.24830151 C-50.22791378 105.62314268 -50.25583294 109.99765974 -50.30175781 114.37231445 C-50.74213065 141.93967087 -50.74213065 141.93967087 -46 169 C-45.80231018 169.72271088 -45.60462036 170.44542175 -45.40093994 171.19003296 C-44.56412215 174.20769934 -43.6851161 177.20363564 -42.734375 180.1875 C-42.01892772 182.92751086 -41.85506725 185.18416371 -42 188 C-41.34 188 -40.68 188 -40 188 C-39.61178984 190.66894483 -39.27753312 193.31867196 -39 196 C-38.88011719 197.08087891 -38.88011719 197.08087891 -38.7578125 198.18359375 C-38.36133899 204.72540664 -40.3235089 209.62324304 -44 215 C-46.43615825 217.72184845 -49.02787589 219.88586644 -52 222 C-52.83917969 222.65162109 -52.83917969 222.65162109 -53.6953125 223.31640625 C-60.29438377 227.56289382 -69.46724681 227.17967164 -77 226 C-80.97710762 224.63125517 -83.81656374 222.7204949 -87 220 C-87.70769531 219.42765625 -88.41539062 218.8553125 -89.14453125 218.265625 C-97.10340275 211.0954705 -103.67395264 201.2695256 -109 192 C-109 191.34 -109 190.68 -109 190 C-109.52207031 190.37697021 -110.04414063 190.75394043 -110.58203125 191.14233398 C-138.0467149 210.89009087 -165.78708549 226.62999995 -200.43310547 226.44604492 C-202.86642159 226.43753002 -205.29738187 226.4664388 -207.73046875 226.49804688 C-221.36604778 226.56050621 -235.22718541 224.92858797 -247.375 218.25 C-248.35774902 217.72805054 -248.35774902 217.72805054 -249.36035156 217.19555664 C-251.260971 216.16252011 -253.13353604 215.09333265 -255 214 C-255.99773437 213.41605469 -256.99546875 212.83210937 -258.0234375 212.23046875 C-270.20063008 204.22283065 -279.0498846 191.55544847 -284 178 C-284.61488281 176.35451172 -284.61488281 176.35451172 -285.2421875 174.67578125 C-290.32948865 159.29108087 -289.46326942 140.17610955 -283.25 125.125 C-282.53355992 123.73221911 -281.78144308 122.35737678 -281 121 C-280.54109375 120.15566406 -280.0821875 119.31132812 -279.609375 118.44140625 C-268.42305667 99.29976931 -250.39348171 88.75687284 -229.38891602 83.10961914 C-218.44700897 80.31739207 -207.34424022 78.25074872 -196.23828125 76.23046875 C-188.74644302 74.84166249 -181.49867912 73.09142643 -174.19384766 70.92602539 C-169.87435565 69.67363025 -165.51953395 68.69675776 -161.125 67.75 C-142.06999578 63.51631334 -122.86311011 59.16951098 -104.3046875 53.078125 C-100.89032633 51.96421994 -97.45772943 50.97032051 -94 50 C-67.00291815 42.4255222 -67.00291815 42.4255222 -41.43359375 31.15625 C-38.21685982 29.62791414 -35.53624715 29.16073851 -32 29 C-32 28.34 -32 27.68 -32 27 C-30.54980469 26.27296875 -30.54980469 26.27296875 -29.0703125 25.53125 C-16.36412621 19.04566444 -7.09860043 12.78688289 0 0 Z " fill="#FE6702" transform="translate(399,162)"/>
<path d="M0 0 C0.9169162 -0.00570007 1.8338324 -0.01140015 2.77853394 -0.01727295 C4.72002016 -0.02668995 6.66152213 -0.03324376 8.60302734 -0.03710938 C11.49737759 -0.04668539 14.39097623 -0.07768509 17.28515625 -0.109375 C29.53144147 -0.17761582 41.25391028 0.84716818 53.32958984 2.86585999 C56.08321835 3.30807873 58.84704519 3.63307476 61.6171875 3.953125 C78.49041592 6.87814024 96.94025216 15.95804634 107.3671875 29.76953125 C113.18860775 38.58948478 119.62853321 49.39314913 119.4296875 60.203125 C95.02892142 69.52308994 95.02892142 69.52308994 85.44140625 72.30078125 C83.14537966 72.98869583 80.89729278 73.72094117 78.63671875 74.51171875 C71.86866227 76.87594859 65.62220064 78.82457168 58.4296875 79.203125 C58.27113281 78.44128906 58.11257813 77.67945313 57.94921875 76.89453125 C55.62540112 66.61067535 52.47289401 58.21354884 43.4296875 52.203125 C28.6087163 43.07557567 4.22402533 44.26419969 -12.2578125 47.828125 C-29.97324113 52.09266402 -39.91865062 62.52375701 -49.36816406 77.35205078 C-59.63101135 93.15483473 -59.63101135 93.15483473 -66.5703125 95.203125 C-76.76048741 96.07512007 -85.33655219 96.332329 -93.48828125 89.625 C-98.53643139 85.00360069 -101.23863357 80.36383005 -101.96875 73.40625 C-101.86629137 56.12489387 -97.05723967 43.31726492 -84.953125 30.515625 C-69.2657542 15.29116022 -49.34501271 6.56114912 -27.9453125 3.078125 C-26.94757813 2.90925781 -25.94984375 2.74039063 -24.921875 2.56640625 C-22.13973976 2.09903697 -19.35740398 1.63997783 -16.5703125 1.203125 C-15.50135742 1.02442871 -14.43240234 0.84573242 -13.33105469 0.66162109 C-8.86679082 0.11735418 -4.49281198 0.02219088 0 0 Z " fill="#676767" transform="translate(224.5703125,123.796875)"/>
<path d="M0 0 C0.53730738 36.37570965 0.53730738 36.37570965 -5.046875 48.8359375 C-6.36312509 51.82447255 -7.17682954 54.84451324 -8 58 C-8.66 58 -9.32 58 -10 58 C-10.185625 58.66 -10.37125 59.32 -10.5625 60 C-16.6679812 72.74187382 -30.25574349 79.52551528 -42.90332031 84.28369141 C-57.85214183 89.39079927 -75.40308658 90.47411311 -90 84 C-97.78744649 79.59839981 -104.66699895 72.33250261 -108 64 C-110.24341809 54.86608347 -110.545317 44.46857277 -105.67578125 36.2109375 C-97.5369052 25.4729332 -85.1945853 19.04461581 -72.0625 17 C-71.12535156 16.87625 -70.18820313 16.7525 -69.22265625 16.625 C-66.62260304 16.12074726 -64.43944303 15.49011642 -61.96484375 14.609375 C-56.82959343 12.87425064 -51.64210705 11.72467367 -46.33984375 10.625 C-44.3092396 10.1927327 -42.27864081 9.76044028 -40.24804688 9.328125 C-37.08654551 8.66166626 -33.92461406 7.99729698 -30.76245117 7.33398438 C-27.68296965 6.6861251 -24.60513744 6.03082325 -21.52734375 5.375 C-20.59067368 5.18115723 -19.6540036 4.98731445 -18.68894958 4.78759766 C-14.50302241 3.89387843 -10.52369096 2.90335544 -6.52954102 1.3515625 C-3 0 -3 0 0 0 Z " fill="#FEFDFB" transform="translate(285,258)"/>
<path d="M0 0 C0 5.28 0 10.56 0 16 C-12.46733759 21.04658737 -24.99140802 25.79817044 -37.75 30.0625 C-38.92151611 30.45622803 -40.09303223 30.84995605 -41.30004883 31.25561523 C-49.61664518 34 -49.61664518 34 -53 34 C-53 34.66 -53 35.32 -53 36 C-56.61973402 37.31626692 -59.09567131 38 -63 38 C-63 32.72 -63 27.44 -63 22 C-61.58074219 21.61070312 -60.16148437 21.22140625 -58.69921875 20.8203125 C-47.19397968 17.59982682 -35.89140232 14.03129893 -24.6875 9.875 C-23.03657349 9.26422607 -23.03657349 9.26422607 -21.35229492 8.64111328 C-15.13564306 6.29907194 -9.07175009 3.74548528 -3.05786133 0.92236328 C-1 0 -1 0 0 0 Z " fill="#9B2501" transform="translate(348,236)"/>
<path d="M0 0 C0.66 0.33 1.32 0.66 2 1 C-3.61 6.61 -9.22 12.22 -15 18 C-15.66 17.67 -16.32 17.34 -17 17 C-15.29657414 15.09955869 -13.58752883 13.20471126 -11.875 11.3125 C-11.400625 10.78205078 -10.92625 10.25160156 -10.4375 9.70507812 C-7.18500869 6.12294242 -3.77952775 3.02250068 0 0 Z " fill="#7F7F7F" transform="translate(149,146)"/>
<path d="M0 0 C0.66 0.33 1.32 0.66 2 1 C-1.96 4.96 -5.92 8.92 -10 13 C-10.33 12.34 -10.66 11.68 -11 11 C-9.92173635 9.72486237 -8.83714481 8.45507431 -7.75 7.1875 C-7.14671875 6.47980469 -6.5434375 5.77210938 -5.921875 5.04296875 C-4.07629602 3.08110329 -2.20054668 1.54330375 0 0 Z " fill="#FFE2CF" transform="translate(190,284)"/>
<path d="M0 0 C0.66 0.33 1.32 0.66 2 1 C-1.96 4.96 -5.92 8.92 -10 13 C-10.66 12.67 -11.32 12.34 -12 12 C-8.27653164 7.57905197 -4.70478962 3.42166518 0 0 Z " fill="#DCDCDC" transform="translate(193,179)"/>
</svg>
