<?xml version="1.0" encoding="UTF-8"?>
<svg version="1.1" xmlns="http://www.w3.org/2000/svg" width="2000" height="2000">
<path d="M0 0 C1.42113098 0.12728485 1.42113098 0.12728485 2.87097168 0.25714111 C95.27730886 8.61801028 186.74470549 29.22598433 355.64794922 99.35546875 C357.77811851 100.40053942 359.90978875 101.44256048 362.04345703 102.48046875 C375.44346229 108.99902011 388.43684962 116.08054973 401.35888672 123.49804688 C404.44672451 125.25404411 407.5616191 126.95549765 410.68286133 128.65112305 C440.99495041 145.18151485 470.09431902 164.68850658 498 185 C498.73750488 185.53463867 499.47500977 186.06927734 500.23486328 186.62011719 C525.03691895 204.63095075 548.82714351 223.83145987 571.81640625 244.1015625 C573.62502521 245.6739933 575.4464737 247.22713992 577.27734375 248.7734375 C583.33415133 253.89937319 589.25708316 259.0204993 594.7421875 264.76953125 C596.64227172 266.64660406 598.57594627 268.37223429 600.60180664 270.10839844 C605.130003 274.0584585 609.38700246 278.24268102 613.62890625 282.49609375 C614.8189048 283.68465721 614.8189048 283.68465721 616.03294373 284.89723206 C617.69889081 286.56250283 619.36359256 288.22902029 621.02709961 289.89672852 C623.55536134 292.43034622 626.08891661 294.95858167 628.62304688 297.48632812 C630.2503207 299.11426283 631.87728425 300.74250775 633.50390625 302.37109375 C634.25201065 303.11717392 635.00011505 303.86325409 635.77088928 304.63194275 C639.8200662 308.69898548 643.70893962 312.85002915 647.44700623 317.20545959 C650.04942572 320.21264932 652.78021532 323.09930657 655.5 326 C660.09150696 330.92504463 664.63232877 335.87398585 669 341 C670.17369141 342.37285156 670.17369141 342.37285156 671.37109375 343.7734375 C674.26402015 347.16838435 677.13573885 350.58084939 680 354 C680.5460791 354.65178223 681.0921582 355.30356445 681.65478516 355.97509766 C689.82665171 365.75377879 697.70912478 375.7122629 705.39111328 385.87939453 C706.99935947 387.99915575 708.62031319 390.10850805 710.24609375 392.21484375 C762.73601114 460.24505829 806.4430947 536.47888633 910 910 C910.0835675 910.92292847 910.16713501 911.84585693 910.25323486 912.79675293 C915.30438897 969.35820753 915.11999753 1027.45419939 910 1084 C909.91514343 1084.94742065 909.83028687 1085.89484131 909.74285889 1086.87097168 C903.17206225 1159.49299663 889.22300789 1231.55613597 866.66674805 1300.94366455 C865.99460878 1303.01662722 865.32943607 1305.09171242 864.66601562 1307.16748047 C844.91373557 1368.86414898 818.91278536 1429.44429278 786.42138672 1485.52001953 C784.68875816 1488.5430427 783.02226475 1491.59887915 781.35986328 1494.66088867 C764.83795976 1524.98315767 745.31791248 1554.093054 725 1582 C724.44940918 1582.75877441 723.89881836 1583.51754883 723.33154297 1584.29931641 C712.17147602 1599.65170815 700.47795158 1614.49989391 688.47216797 1629.19580078 C687.17728489 1630.78273046 685.88709522 1632.37348737 684.59765625 1633.96484375 C675.94130634 1644.62483343 667.01638626 1655.02733013 657.66796875 1665.0859375 C655.60547588 1667.33867495 653.58335646 1669.61113406 651.578125 1671.9140625 C640.13339717 1685.03208634 627.79335764 1697.31066778 615.5 1709.625 C614.79650421 1710.33108398 614.09300842 1711.03716797 613.36819458 1711.76464844 C611.32133702 1713.81743529 609.27070574 1715.86637298 607.21875 1717.9140625 C606.61079086 1718.52400055 606.00283173 1719.1339386 605.37644958 1719.76235962 C601.66419915 1723.45502662 597.83448239 1726.96060727 593.86547852 1730.37606812 C590.66311237 1733.16378421 587.58937866 1736.088436 584.5 1739 C579.41421139 1743.76597866 574.31290334 1748.48656211 569 1753 C567.62908203 1754.17175781 567.62908203 1754.17175781 566.23046875 1755.3671875 C562.83439521 1758.26162932 559.4205613 1761.1345571 556 1764 C555.34821777 1764.5460791 554.69643555 1765.0921582 554.02490234 1765.65478516 C544.24622121 1773.82665171 534.2877371 1781.70912478 524.12060547 1789.39111328 C522.00084425 1790.99935947 519.89149195 1792.62031319 517.78515625 1794.24609375 C449.76524585 1846.7280608 373.51415823 1890.50417663 0 1994 C-0.94224426 1994.0835675 -1.88448853 1994.16713501 -2.85528564 1994.25323486 C-54.23037534 1998.72519361 -107.38695774 1999.50019162 -158.81878662 1995.18035889 C-161.16452349 1994.98639598 -163.51103527 1994.80513928 -165.85791016 1994.62548828 C-253.05812304 1987.87940423 -339.74234566 1969.84588668 -479 1918 C-480.6392041 1917.29593018 -480.6392041 1917.29593018 -482.31152344 1916.57763672 C-518.89338 1900.80475056 -554.9596826 1883.12085901 -589.16650391 1862.68652344 C-591.9705937 1861.0175029 -594.78573046 1859.36898484 -597.60546875 1857.7265625 C-617.2559054 1846.25976734 -636.34198949 1834.01693186 -655 1821 C-655.71462402 1820.50290527 -656.42924805 1820.00581055 -657.16552734 1819.49365234 C-678.50187755 1804.63117291 -699.06429246 1788.91855231 -719.19580078 1772.47216797 C-720.78273046 1771.17728489 -722.37348737 1769.88709522 -723.96484375 1768.59765625 C-734.62483343 1759.94130634 -745.02733013 1751.01638626 -755.0859375 1741.66796875 C-757.27385116 1739.66482528 -759.47966215 1737.70462073 -761.71948242 1735.76123047 C-774.08259413 1724.95631153 -785.75990978 1713.40392197 -797.34887695 1701.78149414 C-799.58885186 1699.5360842 -801.83422696 1697.29617161 -804.08007812 1695.05664062 C-805.53417542 1693.60188354 -806.98796303 1692.14681682 -808.44140625 1690.69140625 C-809.42748619 1689.70836266 -809.42748619 1689.70836266 -810.43348694 1688.70545959 C-814.24923732 1684.87057284 -817.88607358 1680.9290683 -821.41404724 1676.82749939 C-824.03081401 1673.8121891 -826.76956598 1670.91205112 -829.5 1668 C-834.09150696 1663.07495537 -838.63232877 1658.12601415 -843 1653 C-844.17369141 1651.62714844 -844.17369141 1651.62714844 -845.37109375 1650.2265625 C-848.26402015 1646.83161565 -851.13573885 1643.41915061 -854 1640 C-854.81911865 1639.02232666 -854.81911865 1639.02232666 -855.65478516 1638.02490234 C-863.82665171 1628.24622121 -871.70912478 1618.2877371 -879.39111328 1608.12060547 C-880.99935947 1606.00084425 -882.62031319 1603.89149195 -884.24609375 1601.78515625 C-921.64702314 1553.3112135 -953.54425565 1500.85854731 -981.29833984 1446.3359375 C-982.80903482 1443.37436847 -984.33365464 1440.42056581 -985.86328125 1437.46875 C-1026.6617301 1358.11434674 -1054.63728605 1270.05249645 -1084 1084 C-1084.0835675 1083.09638733 -1084.16713501 1082.19277466 -1084.25323486 1081.26177979 C-1089.43444547 1024.74936538 -1089.22494538 966.49716181 -1084 910 C-1083.91514343 909.06416077 -1083.83028687 908.12832153 -1083.74285889 907.16412354 C-1075.36140899 815.20169547 -1055.00836039 724.19266263 -984.61230469 554.27148438 C-983.10944326 551.22206839 -981.61978312 548.16656163 -980.1328125 545.109375 C-974.04822352 532.68039578 -967.38986061 520.64055113 -960.50195312 508.64111328 C-958.74595589 505.55327549 -957.04450235 502.4383809 -955.34887695 499.31713867 C-938.81848515 469.00504959 -919.31149342 439.90568098 -899 412 C-898.46536133 411.26249512 -897.93072266 410.52499023 -897.37988281 409.76513672 C-881.57362538 387.99892165 -864.8163681 367.06049004 -847.36083984 346.59912109 C-845.95021698 344.94150004 -844.54712211 343.27770172 -843.14453125 341.61328125 C-836.34463016 333.57415642 -829.27242121 325.83437817 -822.04003906 318.18359375 C-820.51985897 316.55644072 -819.01357233 314.91628614 -817.51464844 313.26953125 C-809.45177952 304.41251091 -801.06065368 295.90702005 -792.58056641 287.45019531 C-790.23613323 285.11116519 -787.89715129 282.76677803 -785.55859375 280.421875 C-784.04459166 278.90853313 -782.5302797 277.39550119 -781.015625 275.8828125 C-780.32897766 275.19414093 -779.64233032 274.50546936 -778.93487549 273.79592896 C-775.01957356 269.89928722 -771.00555401 266.17539602 -766.81610107 262.57455444 C-763.80361092 259.96273408 -760.90811106 257.22676534 -758 254.5 C-753.07464298 249.90780598 -748.11273466 245.38366239 -743 241 C-741.96587775 240.10056855 -740.93205147 239.20079676 -739.8984375 238.30078125 C-733.43161459 232.69053356 -726.87037199 227.25117144 -720.10644531 222.00268555 C-716.37462266 219.10160541 -712.73219828 216.11886935 -709.125 213.0625 C-702.66876592 207.64676863 -695.95287607 202.6147613 -689.17578125 197.609375 C-686.96647821 195.97520471 -684.76412553 194.33199516 -682.5625 192.6875 C-643.11190601 163.30787586 -601.45777954 137.03340516 -558 114 C-557.0394873 113.49082031 -556.07897461 112.98164062 -555.08935547 112.45703125 C-548.41468953 108.9286534 -541.71308489 105.45460647 -535 102 C-534.07880371 101.52240234 -533.15760742 101.04480469 -532.20849609 100.55273438 C-451.98643971 59.05905132 -363.53422346 30.30960713 -174 0 C-173.07707153 -0.0835675 -172.15414307 -0.16713501 -171.20324707 -0.25323486 C-114.64179247 -5.30438897 -56.54580061 -5.11999753 0 0 Z " fill="#CB1106" transform="translate(1087,3)"/>
<path d="M0 0 C103.62 0 207.24 0 314 0 C314 30.03 314 60.06 314 91 C279.68 91 245.36 91 210 91 C210 439.81 210 788.62 210 1148 C170.4 1148 130.8 1148 90 1148 C86.7 1142.72 83.4 1137.44 80 1132 C78.16181307 1129.19371723 76.31870738 1126.4011507 74.4375 1123.625 C69.50773928 1116.28540588 64.64657406 1108.90294813 59.8125 1101.5 C58.73029175 1099.84278931 58.73029175 1099.84278931 57.6262207 1098.15209961 C56.14942969 1095.89017609 54.67301512 1093.62800728 53.19677734 1091.36572266 C49.67610364 1085.97085656 46.15046199 1080.57923773 42.625 1075.1875 C41.92930908 1074.12337891 41.23361816 1073.05925781 40.5168457 1071.96289062 C35.18283672 1063.8053535 29.84234653 1055.6520782 24.5 1047.5 C13.18992136 1030.24118827 1.8919713 1012.97449469 -9.375 995.6875 C-15.83690733 985.77342367 -22.32038205 975.87358345 -28.80761719 965.97607422 C-37.57772155 952.59528612 -46.33099617 939.20351336 -55.08398438 925.81152344 C-63.21604328 913.37000581 -71.35302866 900.9317558 -79.5 888.5 C-90.81007864 871.24118827 -102.1080287 853.97449469 -113.375 836.6875 C-119.83690733 826.77342367 -126.32038205 816.87358345 -132.80761719 806.97607422 C-141.57772155 793.59528612 -150.33099617 780.20351336 -159.08398438 766.81152344 C-167.21604323 754.37000589 -175.35298454 741.93172683 -183.5 729.5 C-191.64412077 717.07269025 -199.77810924 704.63879123 -207.90722656 692.20166016 C-211.43756339 686.80072254 -214.96883261 681.40039461 -218.5 676 C-219.91667105 673.8333362 -221.33333772 671.66666953 -222.75 669.5 C-223.45125 668.4275 -224.1525 667.355 -224.875 666.25 C-248.24999999 630.50000002 -248.24999999 630.50000002 -250.37451172 627.25073242 C-251.79278845 625.08161288 -253.21108276 622.91250483 -254.62939453 620.7434082 C-258.1465705 615.36436401 -261.66345214 609.98512786 -265.1796875 604.60546875 C-273.05959096 592.5504474 -280.94724864 580.50056607 -288.84222412 568.45541382 C-294.67449081 559.55663253 -300.49322048 550.64915784 -306.30175781 541.73486328 C-311.31445671 534.04471481 -316.34284531 526.36492339 -321.375 518.6875 C-330.95615995 504.06968262 -340.52171477 489.44170631 -350.08398438 474.81152344 C-358.21604328 462.37000581 -366.35302866 449.9317558 -374.5 437.5 C-385.81007864 420.24118827 -397.1080287 402.97449469 -408.375 385.6875 C-414.83690733 375.77342367 -421.32038205 365.87358345 -427.80761719 355.97607422 C-436.57772155 342.59528612 -445.33099617 329.20351336 -454.08398438 315.81152344 C-462.21604328 303.37000581 -470.35302866 290.9317558 -478.5 278.5 C-489.81007864 261.24118827 -501.1080287 243.97449469 -512.375 226.6875 C-518.82880875 216.78584878 -525.30370322 206.89811451 -531.78344727 197.01342773 C-535.78519104 190.9085511 -539.7846668 184.80221763 -543.77734375 178.69140625 C-544.16206848 178.10264206 -544.54679321 177.51387787 -544.94317627 176.90727234 C-546.76070178 174.125646 -548.57772808 171.34369646 -550.39404297 168.5612793 C-551.0438916 167.56652588 -551.69374023 166.57177246 -552.36328125 165.546875 C-552.92313721 164.68932617 -553.48299316 163.83177734 -554.05981445 162.94824219 C-555.73810451 160.39796777 -557.42714994 157.85550601 -559.1212616 155.31573486 C-559.66062945 154.50702564 -560.19999731 153.69831642 -560.75570965 152.86510086 C-561.16632546 152.24961758 -561.57694128 151.63413429 -562 151 C-562.10026204 210.8925198 -562.05626015 270.78060286 -561.6328125 330.671875 C-561.62568625 331.68150381 -561.62568625 331.68150381 -561.61841604 332.71152917 C-561.49911593 349.58672216 -561.37251577 366.46185785 -561.24281044 383.33697375 C-561.15663875 394.54835514 -561.07256508 405.75975041 -560.99026489 416.97116089 C-560.98467073 417.73313119 -560.97907656 418.49510149 -560.97331288 419.28016181 C-560.94487392 423.15520378 -560.9164692 427.030246 -560.88808048 430.90528834 C-560.8305858 438.75176613 -560.77284497 446.59824211 -560.7150116 454.44471741 C-560.70924326 455.22735692 -560.70347493 456.00999644 -560.6975318 456.8163523 C-560.5742868 473.52958343 -560.44860134 490.24279599 -560.32271016 506.95600736 C-560.05037963 543.11150705 -559.78535802 579.26705649 -559.52359772 615.42263412 C-559.33413089 641.59208512 -559.14361584 667.76152856 -558.95302331 693.93097138 C-558.93760956 696.04745561 -558.92219907 698.16393986 -558.90678883 700.28042412 C-558.76998154 719.06785577 -558.63231728 737.85528091 -558.49356103 756.64269829 C-558.46498512 760.51599448 -558.43651204 764.38929142 -558.40805626 768.2625885 C-558.20117007 796.38712819 -557.98253953 824.51152598 -557.73915729 852.6357718 C-557.28938977 904.63308712 -556.83970752 956.62536419 -556.9375 1008.625 C-556.958125 1024.91875 -556.97875 1041.2125 -557 1058 C-516.08 1058 -475.16 1058 -433 1058 C-433 1087.37 -433 1116.74 -433 1147 C-541.9 1147 -650.8 1147 -763 1147 C-763 1117.63 -763 1088.26 -763 1058 C-728.35 1058 -693.7 1058 -658 1058 C-658 738.56 -658 419.12 -658 90 C-692.65 90 -727.3 90 -763 90 C-763 60.63 -763 31.26 -763 1 C-734.62564323 0.42568222 -706.255839 -0.05390391 -677.87709979 -0.32769857 C-674.5192119 -0.36021293 -671.16133632 -0.3938657 -667.8034668 -0.42822266 C-667.13503775 -0.43504273 -666.4666087 -0.4418628 -665.77792423 -0.44888954 C-654.98514653 -0.56171851 -644.19600708 -0.76652141 -633.40538073 -1.0059727 C-622.31441121 -1.25001681 -611.22543483 -1.3917648 -600.13191932 -1.44630086 C-593.90648928 -1.48009279 -587.68927639 -1.55892363 -581.46649361 -1.74898148 C-542.51674024 -2.89302093 -542.51674024 -2.89302093 -534.31806564 3.49073029 C-528.40832276 9.09012254 -525.22485118 16.14434542 -522.37841606 23.67653275 C-520.135312 29.08482935 -516.8230249 33.70878577 -513.5 38.5 C-512.26553116 40.38194936 -511.03574112 42.26698351 -509.8125 44.15625 C-505.7137301 50.44103052 -501.60712081 56.72067481 -497.5 63 C-490.27163491 74.05173387 -483.05433153 85.11063337 -475.84277344 96.17333984 C-472.72918227 100.94932799 -469.61454507 105.72463389 -466.5 110.5 C-462.77293226 116.21451452 -459.04605434 121.92915216 -455.3203125 127.64453125 C-448.67962802 137.83060632 -442.03169671 148.01188075 -435.375 158.1875 C-429.88540287 166.57933877 -424.40879364 174.97937544 -418.94824219 183.39013672 C-413.79662524 191.32120852 -408.61926347 199.2353822 -403.44189453 207.1496582 C-396.89935255 217.15136558 -390.36944256 227.16126981 -383.84277344 237.17333984 C-380.72918227 241.94932799 -377.61453276 246.72462586 -374.5 251.5 C-373.24999504 253.41666343 -371.99999503 255.33333009 -370.75 257.25 C-370.13125 258.19875 -369.5125 259.1475 -368.875 260.125 C-333.25 314.75 -333.25 314.75 -331.37548828 317.62426758 C-330.12388053 319.5433886 -328.87225289 321.46249665 -327.62060547 323.3815918 C-324.52004182 328.13560133 -321.41980988 332.88982647 -318.3203125 337.64453125 C-311.72067889 347.76769805 -305.11461262 357.88661332 -298.5 368 C-291.27165657 379.05174806 -284.05433155 390.11063334 -276.84277344 401.17333984 C-273.72918227 405.94932799 -270.61453276 410.72462586 -267.5 415.5 C-266.24999504 417.41666343 -264.99999503 419.33333009 -263.75 421.25 C-263.13125 422.19875 -262.5125 423.1475 -261.875 424.125 C-241.25000002 455.74999997 -241.25000002 455.74999997 -239.37548828 458.62426758 C-238.12388053 460.5433886 -236.87225289 462.46249665 -235.62060547 464.3815918 C-232.52004182 469.13560133 -229.41980988 473.88982647 -226.3203125 478.64453125 C-219.72067889 488.76769805 -213.11461262 498.88661332 -206.5 509 C-199.27165657 520.05174806 -192.05433155 531.11063334 -184.84277344 542.17333984 C-181.72918227 546.94932799 -178.61453276 551.72462586 -175.5 556.5 C-174.24999504 558.41666343 -172.99999503 560.33333009 -171.75 562.25 C-170.821875 563.673125 -170.821875 563.673125 -169.875 565.125 C-134.25 619.75 -134.25 619.75 -132.37548828 622.62426758 C-131.12388053 624.5433886 -129.87225289 626.46249665 -128.62060547 628.3815918 C-125.52004182 633.13560133 -122.41980988 637.88982647 -119.3203125 642.64453125 C-112.72067889 652.76769805 -106.11461262 662.88661332 -99.5 673 C-92.27165657 684.05174806 -85.05433155 695.11063334 -77.84277344 706.17333984 C-74.72918227 710.94932799 -71.61453276 715.72462586 -68.5 720.5 C-67.24999504 722.41666343 -65.99999503 724.33333009 -64.75 726.25 C-63.821875 727.673125 -63.821875 727.673125 -62.875 729.125 C-42.24999998 760.75000002 -42.24999998 760.75000002 -40.37548828 763.62426758 C-39.12388053 765.5433886 -37.87225289 767.46249665 -36.62060547 769.3815918 C-33.52004182 774.13560133 -30.41980988 778.88982647 -27.3203125 783.64453125 C-20.72067889 793.76769805 -14.11461262 803.88661332 -7.5 814 C-0.27165657 825.05174806 6.94566845 836.11063334 14.15722656 847.17333984 C17.27081773 851.94932799 20.38546724 856.72462586 23.5 861.5 C24.75000496 863.41666343 26.00000497 865.33333009 27.25 867.25 C28.178125 868.673125 28.178125 868.673125 29.125 870.125 C64.75 924.75 64.75 924.75 66.62451172 927.62426758 C67.87611947 929.5433886 69.12774711 931.46249665 70.37939453 933.3815918 C73.47995818 938.13560133 76.58019012 942.88982647 79.6796875 947.64453125 C86.1332199 957.54370214 92.59094997 967.44012136 99.05621338 977.33163452 C100.15986684 979.02022133 101.26328604 980.70896125 102.36669922 982.39770508 C103.04361816 983.43306396 103.72053711 984.46842285 104.41796875 985.53515625 C105.01375732 986.446604 105.6095459 987.35805176 106.22338867 988.29711914 C108.13595039 991.20683067 110.06741922 994.10355636 112 997 C112.2238302 920.41392419 111.9023953 843.83430517 111.37890625 767.25 C111.3670868 765.5198679 111.3670868 765.5198679 111.35502857 763.75478363 C111.15861887 735.04267329 110.95432069 706.33062066 110.74680237 677.61858869 C110.61447479 659.30807983 110.48469925 640.99755467 110.35717773 622.68701172 C110.34877306 621.48046548 110.34036839 620.27391923 110.33170903 619.03081098 C110.29784287 614.16846005 110.26398554 609.30610905 110.2301403 604.44375797 C109.6460266 520.54887484 109.05244312 436.65414589 108.31680298 352.76043701 C108.27895358 348.44250522 108.24113712 344.12457313 108.20336914 339.80664062 C108.19440707 338.78269211 108.185445 337.7587436 108.17621136 336.70376635 C107.89608948 304.60840413 107.68159285 272.51260842 107.48258978 240.41665411 C107.44731481 234.75415892 107.41022486 229.09167733 107.37231445 223.42919922 C107.18095284 194.80780174 106.99172147 166.18657679 106.97314453 137.56445312 C106.97267616 136.8438996 106.97220779 136.12334608 106.97172523 135.3809576 C106.96384819 120.58729394 106.98567299 105.79365902 107 91 C71.69 91 36.38 91 0 91 C0 60.97 0 30.94 0 0 Z " fill="#DAEEEC" transform="translate(1225,426)"/>
</svg>
